<svg xmlns="http://www.w3.org/2000/svg" width="206" height="65" fill="none"><rect width="205.24" height="64" x=".761" y=".752" fill="#fff" rx="6"/><path fill="#4285F4" d="M53.721 33.169c0-1.3-.117-2.55-.333-3.75H36.12v7.1h9.867c-.434 2.283-1.734 4.217-3.684 5.517v4.616h5.95c3.467-3.2 5.467-7.9 5.467-13.483Z"/><path fill="#34A853" d="M36.12 51.085c4.95 0 9.1-1.633 12.134-4.433l-5.95-4.617c-1.633 1.1-3.717 1.767-6.183 1.767-4.767 0-8.817-3.217-10.267-7.55h-6.1v4.733c3.017 5.984 9.2 10.1 16.367 10.1Z"/><path fill="#FBBC05" d="M25.856 36.235a10.988 10.988 0 0 1-.584-3.483c0-1.217.217-2.384.584-3.484v-4.733h-6.1a18.107 18.107 0 0 0-1.967 8.217c0 2.966.717 5.75 1.967 8.216l4.75-3.7 1.35-1.033Z"/><path fill="#EA4335" d="M36.12 21.719c2.7 0 5.1.933 7.017 2.733l5.25-5.25c-3.183-2.966-7.316-4.783-12.266-4.783-7.167 0-13.35 4.117-16.367 10.117l6.1 4.733c1.45-4.333 5.5-7.55 10.267-7.55Z"/><path fill="#6A6A6A" d="M68.578 17.295a3.75 3.75 0 0 1-2.734-1.126 3.892 3.892 0 0 1-.82-1.25c-.19-.478-.286-1-.286-1.567 0-.566.092-1.088.276-1.566a3.617 3.617 0 0 1 2.017-2.068c.465-.199.97-.298 1.516-.298s1.034.092 1.464.277c.437.184.806.43 1.106.737.3.3.516.631.645.993l-1.239.594a1.998 1.998 0 0 0-.727-.962c-.341-.246-.757-.369-1.249-.369a2.39 2.39 0 0 0-1.27.338 2.339 2.339 0 0 0-.85.932c-.198.396-.297.86-.297 1.392 0 .533.103 1 .308 1.403.211.396.501.707.87.932a2.39 2.39 0 0 0 1.27.338c.389 0 .747-.075 1.075-.225.328-.157.59-.376.788-.656a1.74 1.74 0 0 0 .297-1.013v-.584l.635.553h-2.826v-1.178h3.584v.768c0 .587-.099 1.106-.297 1.557-.198.45-.468.83-.809 1.136-.334.3-.713.53-1.137.687-.423.15-.86.225-1.31.225Zm7.266 0a3.005 3.005 0 0 1-1.495-.38 2.919 2.919 0 0 1-1.065-1.033 2.871 2.871 0 0 1-.389-1.495c0-.56.13-1.059.39-1.495a2.918 2.918 0 0 1 1.064-1.035 2.968 2.968 0 0 1 1.495-.379c.546 0 1.041.127 1.485.38.444.252.795.597 1.055 1.034.266.43.4.928.4 1.495 0 .56-.134 1.058-.4 1.495a2.92 2.92 0 0 1-2.54 1.413Zm0-1.229c.3 0 .564-.072.789-.215.232-.143.413-.341.543-.594.136-.26.204-.55.204-.87 0-.328-.068-.615-.204-.86a1.481 1.481 0 0 0-.543-.595 1.388 1.388 0 0 0-.789-.225c-.307 0-.577.075-.809.225a1.548 1.548 0 0 0-.553.594c-.13.246-.194.533-.194.86 0 .321.065.612.194.871.137.253.321.45.553.594.232.143.502.215.81.215Zm6.68 1.229a3.005 3.005 0 0 1-1.495-.38 2.919 2.919 0 0 1-1.065-1.033 2.871 2.871 0 0 1-.389-1.495c0-.56.13-1.059.39-1.495a2.918 2.918 0 0 1 1.064-1.035 2.968 2.968 0 0 1 1.495-.379c.546 0 1.041.127 1.485.38.444.252.795.597 1.055 1.034.266.43.4.928.4 1.495 0 .56-.134 1.058-.4 1.495a2.92 2.92 0 0 1-2.54 1.413Zm0-1.229c.3 0 .564-.072.789-.215.232-.143.413-.341.543-.594.136-.26.204-.55.204-.87 0-.328-.068-.615-.204-.86a1.481 1.481 0 0 0-.543-.595 1.388 1.388 0 0 0-.789-.225c-.307 0-.577.075-.809.225a1.548 1.548 0 0 0-.553.594c-.13.246-.194.533-.194.86 0 .321.065.612.194.871.137.253.321.45.553.594.232.143.502.215.81.215Zm6.66 3.359c-.417 0-.802-.069-1.157-.205a2.768 2.768 0 0 1-.922-.574 2.135 2.135 0 0 1-.553-.85l1.25-.47c.081.259.242.467.48.624.246.164.547.246.902.246.273 0 .512-.051.717-.154a1.12 1.12 0 0 0 .491-.45c.116-.191.174-.423.174-.697v-1.27l.256.308a1.907 1.907 0 0 1-.768.758c-.32.17-.686.256-1.096.256a2.71 2.71 0 0 1-1.392-.359 2.56 2.56 0 0 1-.963-.983 2.832 2.832 0 0 1-.348-1.403 2.8 2.8 0 0 1 .348-1.403c.232-.41.55-.73.953-.962.402-.24.86-.359 1.372-.359a2.19 2.19 0 0 1 1.894 1.014l-.184.338v-1.229h1.27v5.294c0 .485-.12.919-.359 1.3a2.45 2.45 0 0 1-.962.902c-.403.218-.87.328-1.403.328Zm-.062-3.717c.287 0 .536-.062.748-.185.218-.13.389-.307.512-.532a1.6 1.6 0 0 0 .184-.778c0-.287-.065-.543-.194-.768a1.353 1.353 0 0 0-.512-.543 1.382 1.382 0 0 0-.738-.195c-.28 0-.532.065-.757.195-.226.13-.403.31-.533.543a1.577 1.577 0 0 0-.184.768c0 .286.061.542.184.768.13.225.304.402.522.532.226.13.482.195.768.195Zm4.038 1.464V9.42h1.342v7.752H93.16Zm5.222.123c-.573 0-1.075-.13-1.505-.39a2.711 2.711 0 0 1-1.003-1.054 3.06 3.06 0 0 1-.359-1.475c0-.56.12-1.054.359-1.484a2.78 2.78 0 0 1 .993-1.035 2.705 2.705 0 0 1 1.413-.379c.437 0 .82.072 1.147.216.334.143.618.34.85.593.232.253.409.543.532.87.123.322.185.67.185 1.045 0 .096-.007.195-.021.297a.99.99 0 0 1-.051.266h-4.3v-1.024h3.542l-.635.482c.062-.314.045-.594-.051-.84a1.164 1.164 0 0 0-.45-.584 1.27 1.27 0 0 0-.748-.215c-.28 0-.53.072-.748.215a1.295 1.295 0 0 0-.501.615c-.11.266-.15.59-.123.973-.028.34.017.645.133.911.123.26.3.46.532.604.24.144.512.215.82.215.307 0 .566-.065.778-.194.218-.13.389-.304.512-.523l1.085.533a1.89 1.89 0 0 1-.512.706 2.546 2.546 0 0 1-.83.482 2.995 2.995 0 0 1-1.044.174Zm5.561-.123V9.543h2.837c.518 0 .976.096 1.372.287.402.184.717.457.942.819.225.355.338.789.338 1.3 0 .526-.127.973-.379 1.342-.246.369-.58.642-1.004.82l1.751 3.06h-1.577l-1.874-3.348.902.533h-1.915v2.816h-1.393Zm1.393-4.045h1.464c.253 0 .471-.048.655-.143.185-.103.328-.243.43-.42.103-.178.154-.382.154-.614 0-.24-.051-.444-.154-.615a1.03 1.03 0 0 0-.43-.41 1.325 1.325 0 0 0-.655-.153h-1.464v2.355Zm6.954 4.168a2.44 2.44 0 0 1-1.014-.195 1.528 1.528 0 0 1-.665-.553 1.544 1.544 0 0 1-.236-.85c0-.307.068-.58.205-.819.136-.246.348-.45.635-.614.287-.164.648-.28 1.085-.348l1.823-.297v1.024l-1.567.266c-.266.048-.464.133-.594.256a.635.635 0 0 0-.194.481c0 .191.071.345.215.46.15.11.334.165.553.165.28 0 .525-.058.737-.174.219-.123.386-.29.502-.502a1.36 1.36 0 0 0 .184-.696v-1.434a.735.735 0 0 0-.287-.594c-.184-.164-.43-.246-.737-.246a1.31 1.31 0 0 0-.768.236c-.218.15-.379.351-.481.604l-1.096-.533c.109-.293.28-.546.512-.757.239-.219.519-.39.84-.512a2.896 2.896 0 0 1 1.044-.185c.458 0 .861.086 1.209.256.348.164.617.396.809.697.198.293.297.638.297 1.034v3.707h-1.27v-.952l.287-.02c-.144.238-.314.44-.512.603-.198.157-.424.28-.676.369a2.717 2.717 0 0 1-.84.123Zm6.69-.062c-.628 0-1.116-.17-1.464-.512-.342-.348-.512-.836-.512-1.464v-2.458h-.963v-1.198h.102c.274 0 .485-.071.635-.215.151-.143.226-.351.226-.624v-.43h1.341v1.27h1.28v1.197h-1.28v2.386c0 .185.031.342.092.471a.68.68 0 0 0 .307.297c.144.069.325.103.543.103a1.5 1.5 0 0 0 .164-.01l.195-.021v1.147a8.51 8.51 0 0 1-.328.04 2.793 2.793 0 0 1-.338.021Zm1.69-.061v-5.57h1.342v5.57h-1.342Zm0-6.195V9.543h1.342v1.434h-1.342Zm2.58 6.195v-5.57h1.26v1.095l-.102-.195a1.45 1.45 0 0 1 .634-.757 2.018 2.018 0 0 1 1.045-.267c.41 0 .771.09 1.085.267.321.177.57.426.748.747.177.314.266.68.266 1.096v3.584h-1.341v-3.267a1.32 1.32 0 0 0-.144-.635.998.998 0 0 0-.399-.41 1.078 1.078 0 0 0-.584-.153 1.11 1.11 0 0 0-.583.154 1.006 1.006 0 0 0-.4.41 1.325 1.325 0 0 0-.143.634v3.267h-1.342Zm8.774 2.253c-.417 0-.802-.069-1.157-.205a2.766 2.766 0 0 1-.922-.574 2.13 2.13 0 0 1-.553-.85l1.249-.47c.082.259.243.467.482.624.245.164.546.246.901.246.273 0 .512-.051.717-.154a1.12 1.12 0 0 0 .491-.45c.116-.191.174-.423.174-.697v-1.27l.256.308a1.905 1.905 0 0 1-.768.758c-.321.17-.686.256-1.095.256-.519 0-.984-.12-1.393-.359a2.558 2.558 0 0 1-.963-.983 2.833 2.833 0 0 1-.348-1.403 2.8 2.8 0 0 1 .348-1.403c.232-.41.55-.73.953-.962.402-.24.86-.359 1.372-.359a2.187 2.187 0 0 1 1.894 1.014l-.184.338v-1.229h1.27v5.294c0 .485-.12.919-.359 1.3a2.452 2.452 0 0 1-.962.902c-.403.218-.871.328-1.403.328Zm-.062-3.717c.287 0 .536-.062.748-.185.218-.13.389-.307.512-.532a1.6 1.6 0 0 0 .184-.778c0-.287-.065-.543-.194-.768a1.357 1.357 0 0 0-.512-.543 1.386 1.386 0 0 0-.738-.195c-.28 0-.532.065-.757.195-.226.13-.403.31-.533.543a1.576 1.576 0 0 0-.184.768c0 .286.061.542.184.768.13.225.304.402.522.532.226.13.482.195.768.195Z"/><path fill="#FEA500" d="M69.781 39.252v-2.458h-5.069v-1.996l4.915-6.99h2.535v6.99h1.766v1.996h-1.766v2.458h-2.38Zm-3.333-3.594-.445-.86h3.778v-5.146l.6.184-3.933 5.822Zm9.924 3.594v-2.304h2.304v2.304h-2.304Zm9.142.184c-.86 0-1.602-.158-2.227-.476-.614-.317-1.085-.742-1.413-1.275a3.25 3.25 0 0 1-.491-1.735c0-.748.194-1.373.583-1.874.4-.502.983-.881 1.751-1.137l-.153.584c-.543-.164-.978-.502-1.306-1.014a3.171 3.171 0 0 1-.476-1.705c0-.614.159-1.162.476-1.644a3.158 3.158 0 0 1 1.321-1.12c.563-.277 1.209-.416 1.936-.416.727 0 1.367.139 1.92.415.563.266 1.003.64 1.32 1.121.328.482.492 1.03.492 1.644 0 .625-.159 1.193-.476 1.705a2.317 2.317 0 0 1-1.306 1.029l-.138-.614c.768.286 1.352.68 1.751 1.182.4.492.6 1.111.6 1.859a3.18 3.18 0 0 1-.508 1.736c-.328.522-.804.942-1.428 1.26-.625.317-1.367.475-2.228.475Zm0-1.996c.359 0 .671-.067.938-.2.266-.133.47-.318.614-.553.153-.236.23-.507.23-.814a1.41 1.41 0 0 0-.23-.814 1.372 1.372 0 0 0-.615-.538 2.071 2.071 0 0 0-.936-.2c-.349 0-.656.067-.922.2-.256.123-.46.302-.615.538a1.485 1.485 0 0 0-.215.814c0 .307.072.578.215.814.154.235.359.42.615.553.266.133.573.2.921.2Zm0-5.115c.277 0 .513-.062.707-.185a1.29 1.29 0 0 0 .476-.491 1.38 1.38 0 0 0 .17-.676 1.41 1.41 0 0 0-.17-.691 1.184 1.184 0 0 0-.476-.476 1.297 1.297 0 0 0-.707-.185c-.266 0-.501.062-.706.185a1.184 1.184 0 0 0-.476.476 1.41 1.41 0 0 0-.17.69c0 .247.057.472.17.677.113.205.271.368.476.491.205.123.44.185.706.185Zm23.914-6.879a.64.64 0 0 1 1.146 0l1.922 3.868a.64.64 0 0 0 .48.348l4.272.633a.64.64 0 0 1 .354 1.09l-3.084 3.023a.642.642 0 0 0-.184.564l.719 4.259a.64.64 0 0 1-.927.673l-3.829-2a.639.639 0 0 0-.592 0l-3.829 2a.64.64 0 0 1-.927-.673l.719-4.26a.642.642 0 0 0-.184-.563l-3.084-3.023a.64.64 0 0 1 .354-1.09l4.273-.633a.64.64 0 0 0 .479-.348l1.922-3.868Zm17.92 0a.64.64 0 0 1 1.146 0l1.922 3.868a.64.64 0 0 0 .479.348l4.273.633a.64.64 0 0 1 .354 1.09l-3.085 3.023a.641.641 0 0 0-.183.564l.719 4.259a.64.64 0 0 1-.927.673l-3.829-2a.639.639 0 0 0-.592 0l-3.829 2a.64.64 0 0 1-.927-.673l.719-4.26a.642.642 0 0 0-.184-.563l-3.085-3.023a.64.64 0 0 1 .355-1.09l4.272-.633a.64.64 0 0 0 .48-.348l1.922-3.868Zm17.92 0a.64.64 0 0 1 1.146 0l1.922 3.868a.64.64 0 0 0 .479.348l4.273.633a.64.64 0 0 1 .354 1.09l-3.085 3.023a.641.641 0 0 0-.183.564l.719 4.259a.64.64 0 0 1-.927.673l-3.829-2a.639.639 0 0 0-.592 0l-3.829 2a.64.64 0 0 1-.927-.673l.718-4.26a.638.638 0 0 0-.183-.563l-3.085-3.023a.64.64 0 0 1 .355-1.09l4.272-.633a.64.64 0 0 0 .48-.348l1.922-3.868Zm17.92 0a.64.64 0 0 1 1.146 0l1.922 3.868a.64.64 0 0 0 .479.348l4.273.633a.64.64 0 0 1 .354 1.09l-3.085 3.023a.641.641 0 0 0-.183.564l.719 4.259a.64.64 0 0 1-.927.673l-3.829-2a.64.64 0 0 0-.593 0l-3.828 2a.64.64 0 0 1-.927-.673l.718-4.26a.638.638 0 0 0-.183-.563l-3.085-3.023a.64.64 0 0 1 .355-1.09l4.272-.633a.641.641 0 0 0 .48-.348l1.922-3.868Zm17.92 0a.64.64 0 0 1 1.146 0l1.922 3.868a.64.64 0 0 0 .479.348l4.273.633a.64.64 0 0 1 .354 1.09l-3.085 3.023a.641.641 0 0 0-.183.564l.719 4.259a.64.64 0 0 1-.927.673l-3.829-2a.64.64 0 0 0-.593 0l-3.828 2a.64.64 0 0 1-.927-.673l.718-4.26a.638.638 0 0 0-.183-.563l-3.085-3.023a.64.64 0 0 1 .354-1.09l4.273-.633a.643.643 0 0 0 .48-.348l1.922-3.868Z"/><path fill="#868686" d="M66.412 55.424c-.364 0-.694-.069-.99-.207a2.28 2.28 0 0 1-.754-.553 2.134 2.134 0 0 1-.437-.776l.553-.207c.133.389.34.686.622.89.281.2.617.3 1.006.3.246 0 .46-.038.645-.115.19-.082.335-.194.438-.338a.836.836 0 0 0 .153-.5c0-.28-.076-.498-.23-.652-.154-.154-.374-.271-.66-.353l-1.03-.307c-.404-.118-.716-.315-.937-.592a1.498 1.498 0 0 1-.322-.944c0-.302.074-.569.223-.8a1.54 1.54 0 0 1 .606-.552c.261-.133.556-.2.883-.2.343 0 .65.064.922.192a2.1 2.1 0 0 1 .699.492c.19.205.325.432.407.683l-.538.215c-.123-.338-.315-.594-.576-.768a1.572 1.572 0 0 0-.906-.26c-.22 0-.415.038-.584.114a.898.898 0 0 0-.384.33.916.916 0 0 0-.138.508c0 .235.074.448.223.637.148.184.376.323.683.415l.907.268c.45.134.79.326 1.021.576.23.251.346.566.346.945 0 .307-.08.579-.238.814-.154.23-.372.412-.653.545a2.18 2.18 0 0 1-.96.2Zm4.827 0a2.02 2.02 0 0 1-1.045-.276 2.046 2.046 0 0 1-.73-.776 2.282 2.282 0 0 1-.268-1.114c0-.414.087-.78.26-1.098.175-.322.41-.576.707-.76.302-.184.64-.277 1.014-.277.297 0 .56.057.791.17.236.107.435.255.6.445.163.184.288.394.376.63a2.003 2.003 0 0 1 .122.89 2.789 2.789 0 0 1-.023.192h-3.479v-.537h3.15l-.277.23a1.19 1.19 0 0 0-.1-.752 1.24 1.24 0 0 0-.469-.53 1.24 1.24 0 0 0-.69-.2c-.257 0-.495.067-.715.2-.215.133-.384.32-.507.56-.123.236-.172.517-.146.845a1.56 1.56 0 0 0 .154.86 1.448 1.448 0 0 0 1.275.76c.302 0 .555-.071.76-.214.205-.144.371-.323.5-.538l.49.261a1.601 1.601 0 0 1-.376.515c-.169.153-.37.279-.606.376-.23.092-.487.138-.768.138Zm4.725 0a2.02 2.02 0 0 1-1.045-.276 2.046 2.046 0 0 1-.73-.776 2.282 2.282 0 0 1-.268-1.114c0-.414.087-.78.26-1.098.175-.322.41-.576.707-.76.302-.184.64-.277 1.014-.277.297 0 .56.057.791.17.236.107.435.255.6.445.163.184.288.394.375.63a2.003 2.003 0 0 1 .123.89 2.789 2.789 0 0 1-.023.192H74.29v-.537h3.15l-.277.23a1.19 1.19 0 0 0-.1-.752 1.24 1.24 0 0 0-.469-.53 1.24 1.24 0 0 0-.69-.2c-.257 0-.495.067-.715.2-.215.133-.384.32-.507.56-.123.236-.171.517-.146.845a1.57 1.57 0 0 0 .154.86 1.448 1.448 0 0 0 1.275.76c.302 0 .555-.071.76-.214.205-.144.371-.323.5-.538l.49.261a1.601 1.601 0 0 1-.376.515c-.169.153-.37.279-.606.376-.23.092-.487.138-.768.138Zm5.346 0a1.61 1.61 0 0 1-.699-.146 1.24 1.24 0 0 1-.484-.414 1.044 1.044 0 0 1-.176-.6 1.17 1.17 0 0 1 .568-1.037 2.02 2.02 0 0 1 .745-.26l1.613-.27v.523l-1.475.246c-.297.051-.512.146-.645.284a.699.699 0 0 0-.192.492c0 .184.072.34.215.468a.84.84 0 0 0 .568.192c.282 0 .528-.059.738-.177a1.331 1.331 0 0 0 .668-1.175v-1.044a.752.752 0 0 0-.269-.6c-.18-.153-.412-.23-.699-.23-.25 0-.47.064-.66.192-.19.123-.33.285-.423.484l-.522-.284c.077-.174.197-.333.361-.476.169-.143.361-.256.576-.338.215-.087.438-.13.668-.13.302 0 .569.058.799.176.235.118.417.282.545.492.133.204.2.442.2.714v2.826h-.576v-.822l.084.085a1.233 1.233 0 0 1-.338.422 1.832 1.832 0 0 1-.53.3c-.2.071-.42.107-.66.107Zm3.205-.092v-5.814h.576v5.814h-.576Zm1.755 0v-5.814h.576v5.814h-.576Zm4.987.092c-.389 0-.742-.092-1.06-.276a2.142 2.142 0 0 1-.76-.768 2.231 2.231 0 0 1-.276-1.114c0-.41.092-.776.276-1.098a2.057 2.057 0 0 1 1.82-1.045c.4 0 .755.093 1.068.277.317.184.566.438.745.76.184.323.276.691.276 1.106 0 .42-.094.794-.284 1.121-.19.323-.443.576-.76.76-.313.185-.66.277-1.045.277Zm0-.576c.277 0 .525-.069.745-.207.226-.138.402-.328.53-.569.133-.24.2-.509.2-.806 0-.297-.067-.563-.2-.799a1.468 1.468 0 0 0-.53-.56 1.371 1.371 0 0 0-.745-.208c-.276 0-.527.07-.752.208a1.55 1.55 0 0 0-.53.56 1.6 1.6 0 0 0-.2.8c0 .296.067.565.2.805.133.241.31.43.53.569.225.138.476.207.752.207Zm4.564.576c-.286 0-.547-.066-.783-.2a1.532 1.532 0 0 1-.56-.568 1.746 1.746 0 0 1-.2-.845v-2.595h.576v2.526c0 .22.043.415.13.584a1 1 0 0 0 .377.384c.163.092.35.138.56.138.21 0 .397-.046.56-.138.165-.097.293-.233.385-.407.092-.18.138-.392.138-.637v-2.45h.576v4.116h-.576v-.799l.13.031a1.24 1.24 0 0 1-.499.63 1.46 1.46 0 0 1-.814.23Zm2.944-.092v-4.116h.576v.675l-.077-.1c.097-.194.243-.348.438-.46.2-.113.44-.17.722-.17h.261v.577h-.361c-.297 0-.535.092-.715.276-.179.185-.268.446-.268.784v2.534h-.576Zm3.9 0v-4.116h.576v.675l-.077-.1a1.08 1.08 0 0 1 .438-.46c.199-.113.44-.17.722-.17h.261v.577h-.361c-.297 0-.535.092-.715.276-.179.185-.268.446-.268.784v2.534h-.576Zm4.469.092a2.02 2.02 0 0 1-1.045-.276 2.055 2.055 0 0 1-.73-.776 2.284 2.284 0 0 1-.268-1.114c0-.414.087-.78.261-1.098.174-.322.409-.576.706-.76.302-.184.64-.277 1.014-.277.297 0 .561.057.791.17.236.107.435.255.599.445.164.184.289.394.377.63a2.005 2.005 0 0 1 .122.89 2.324 2.324 0 0 1-.023.192h-3.479v-.537h3.149l-.276.23a1.196 1.196 0 0 0-.1-.752 1.243 1.243 0 0 0-.469-.53 1.238 1.238 0 0 0-.691-.2c-.256 0-.494.067-.714.2-.215.133-.384.32-.507.56-.123.236-.172.517-.146.845a1.56 1.56 0 0 0 .154.86 1.448 1.448 0 0 0 1.275.76c.302 0 .555-.071.76-.214.205-.144.371-.323.499-.538l.492.261a1.604 1.604 0 0 1-.377.515 2.072 2.072 0 0 1-.606.376 2.057 2.057 0 0 1-.768.138Zm3.874-.092-1.605-4.116h.645l1.352 3.61h-.208l1.36-3.61h.652l-1.62 4.116h-.576Zm2.869 0v-4.116h.576v4.116h-.576Zm0-4.877v-.845h.576v.845h-.576Zm3.629 4.97c-.384 0-.732-.093-1.044-.277a2.04 2.04 0 0 1-.73-.776 2.284 2.284 0 0 1-.269-1.114c0-.414.087-.78.261-1.098.174-.322.41-.576.707-.76.302-.184.64-.277 1.014-.277.297 0 .56.057.791.17.235.107.435.255.599.445.164.184.289.394.376.63a2.006 2.006 0 0 1 .123.89 2.852 2.852 0 0 1-.023.192h-3.479v-.537h3.149l-.277.23a1.189 1.189 0 0 0-.1-.752 1.234 1.234 0 0 0-.468-.53 1.24 1.24 0 0 0-.691-.2 1.36 1.36 0 0 0-.715.2c-.215.133-.384.32-.506.56-.123.236-.172.517-.146.845a1.56 1.56 0 0 0 .153.86 1.449 1.449 0 0 0 1.275.76c.302 0 .556-.071.76-.214.205-.144.372-.323.5-.538l.491.261a1.6 1.6 0 0 1-.376.515 2.064 2.064 0 0 1-.607.376 2.05 2.05 0 0 1-.768.138Zm3.757-.093-1.413-4.116h.653l1.167 3.602h-.23l1.098-3.602h.576l1.099 3.602h-.231l1.175-3.602h.645l-1.413 4.116h-.576l-1.067-3.525h.161l-1.068 3.525h-.576Zm6.643.092c-.395 0-.74-.1-1.037-.3a1.694 1.694 0 0 1-.645-.813l.484-.23c.117.25.281.45.491.598.215.149.451.223.707.223.245 0 .453-.059.622-.177a.564.564 0 0 0 .253-.476.457.457 0 0 0-.123-.338.837.837 0 0 0-.284-.2 1.897 1.897 0 0 0-.284-.1l-.591-.168c-.379-.108-.653-.259-.822-.453a1 1 0 0 1-.254-.676c0-.24.062-.45.185-.63s.289-.317.499-.415c.21-.097.443-.146.699-.146.348 0 .663.093.944.277.287.18.489.43.607.753l-.491.23a1.22 1.22 0 0 0-.446-.538 1.082 1.082 0 0 0-.637-.2c-.231 0-.415.06-.553.177a.562.562 0 0 0-.208.446c0 .138.036.248.108.33a.712.712 0 0 0 .246.184c.097.041.181.072.253.092l.684.2c.332.097.591.248.775.453.19.205.285.446.285.722 0 .225-.064.428-.192.607-.123.18-.295.32-.515.422-.22.098-.474.146-.76.146Z"/></svg>