<svg xmlns="http://www.w3.org/2000/svg" width="161" height="65" fill="none"><rect width="159.44" height="64.498" x=".721" y=".503" fill="#fff" rx="6"/><g clip-path="url(#a)"><path fill="#050505" d="M50.21 19.595h12.904v2.407h-5.073v13.534h-2.79V22.002h-5.052v-2.407h.012Zm12.353 4.399h2.385v2.227h.045c.079-.315.225-.619.439-.911.213-.293.472-.574.776-.81a4.135 4.135 0 0 1 1.013-.596 3.096 3.096 0 0 1 1.136-.226c.292 0 .506.012.618.023.113.011.226.034.35.045v2.453a8.093 8.093 0 0 0-.552-.08 4.674 4.674 0 0 0-.551-.033c-.428 0-.833.09-1.215.259a2.8 2.8 0 0 0-.99.754 3.83 3.83 0 0 0-.675 1.237c-.169.495-.248 1.058-.248 1.699v5.49h-2.542V23.994h.011Zm18.45 11.542h-2.498v-1.609h-.044a3.474 3.474 0 0 1-1.395 1.395c-.62.349-1.25.529-1.89.529-1.52 0-2.622-.371-3.297-1.125-.675-.754-1.012-1.89-1.012-3.409v-7.323h2.542v7.076c0 1.012.192 1.732.585 2.148.383.417.934.63 1.631.63.54 0 .98-.078 1.34-.247.36-.169.652-.383.866-.664a2.54 2.54 0 0 0 .483-.99c.101-.382.147-.799.147-1.248v-6.694h2.542v11.531Zm4.331-3.701c.079.742.36 1.26.844 1.563.495.293 1.08.45 1.766.45.236 0 .506-.022.81-.056a3.38 3.38 0 0 0 .855-.214c.27-.1.484-.258.664-.46.169-.203.247-.462.236-.788a1.087 1.087 0 0 0-.36-.799c-.225-.214-.506-.371-.855-.506a8.591 8.591 0 0 0-1.192-.326c-.45-.09-.9-.192-1.362-.293a12.947 12.947 0 0 1-1.372-.383 4.193 4.193 0 0 1-1.181-.607 2.671 2.671 0 0 1-.833-.968c-.214-.393-.315-.877-.315-1.462 0-.63.158-1.148.461-1.575a3.496 3.496 0 0 1 1.16-1.024c.472-.259.99-.439 1.563-.551a9.514 9.514 0 0 1 1.642-.157c.597 0 1.17.067 1.71.19a4.41 4.41 0 0 1 1.474.62c.439.28.799.652 1.091 1.102.293.45.473 1.001.552 1.642h-2.655c-.124-.607-.394-1.023-.833-1.226-.439-.213-.945-.315-1.507-.315-.18 0-.394.011-.642.045a3.51 3.51 0 0 0-.697.169 1.512 1.512 0 0 0-.551.36.87.87 0 0 0-.225.619.96.96 0 0 0 .326.753c.214.192.495.35.844.484.348.124.742.236 1.192.326.45.09.911.192 1.384.293.461.101.911.236 1.361.383.45.146.844.348 1.193.607a3 3 0 0 1 .843.956c.214.383.327.866.327 1.429 0 .686-.158 1.26-.473 1.744a3.74 3.74 0 0 1-1.215 1.159 5.713 5.713 0 0 1-1.665.652 8.354 8.354 0 0 1-1.811.203 7.686 7.686 0 0 1-2.025-.248c-.619-.169-1.159-.416-1.609-.742a3.681 3.681 0 0 1-1.069-1.25c-.258-.494-.393-1.09-.416-1.777h2.565v-.022Zm8.393-7.841h1.923v-3.465h2.543v3.465h2.295v1.9h-2.295v6.166c0 .27.011.495.034.697.022.192.078.36.157.495a.721.721 0 0 0 .371.304c.17.068.383.101.675.101.18 0 .36 0 .54-.011.18-.011.36-.034.54-.079v1.969c-.281.034-.562.056-.82.09-.27.034-.54.045-.822.045-.675 0-1.215-.068-1.62-.191-.405-.124-.731-.315-.956-.563-.237-.247-.383-.551-.473-.922a6.935 6.935 0 0 1-.146-1.271v-6.807h-1.924v-1.924h-.022Zm8.561 0h2.407v1.563h.045c.36-.675.855-1.147 1.497-1.44a4.928 4.928 0 0 1 2.081-.439c.911 0 1.699.158 2.374.484a4.638 4.638 0 0 1 1.687 1.317c.45.562.776 1.215 1.001 1.957.225.742.338 1.541.338 2.385 0 .776-.101 1.53-.304 2.25a6.012 6.012 0 0 1-.911 1.935 4.475 4.475 0 0 1-1.553 1.339c-.63.337-1.361.506-2.216.506-.371 0-.742-.034-1.114-.101a4.895 4.895 0 0 1-1.068-.327 3.845 3.845 0 0 1-.945-.573 3.565 3.565 0 0 1-.732-.81h-.045v5.76h-2.542V23.994Zm8.887 5.782a5.75 5.75 0 0 0-.202-1.519 4.097 4.097 0 0 0-.608-1.305 3.092 3.092 0 0 0-1.001-.911 2.807 2.807 0 0 0-1.384-.349c-1.068 0-1.878.372-2.418 1.114-.54.742-.81 1.732-.81 2.97 0 .585.067 1.125.213 1.62.147.495.349.922.642 1.282.281.36.618.642 1.012.844.394.214.855.315 1.373.315.585 0 1.068-.123 1.473-.36.405-.236.732-.551.99-.922.259-.383.45-.81.563-1.294a7.25 7.25 0 0 0 .157-1.485Zm4.489-10.181h2.543v2.407h-2.543v-2.407Zm0 4.399h2.543v11.542h-2.543V23.993Zm4.815-4.4h2.543v15.942h-2.543V19.595Zm10.339 16.257c-.923 0-1.744-.157-2.464-.461a5.447 5.447 0 0 1-1.834-1.26 5.49 5.49 0 0 1-1.136-1.924 7.42 7.42 0 0 1-.394-2.453c0-.877.135-1.687.394-2.43a5.49 5.49 0 0 1 1.136-1.923c.495-.54 1.114-.956 1.834-1.26.72-.304 1.541-.462 2.464-.462.922 0 1.744.158 2.464.462a5.42 5.42 0 0 1 1.833 1.26c.495.54.878 1.181 1.137 1.924.258.742.393 1.552.393 2.43 0 .888-.135 1.71-.393 2.452a5.491 5.491 0 0 1-1.137 1.924c-.495.54-1.113.956-1.833 1.26-.72.303-1.542.461-2.464.461Zm0-2.014c.562 0 1.057-.123 1.474-.36a3.135 3.135 0 0 0 1.023-.933c.27-.383.462-.822.597-1.305.123-.484.191-.98.191-1.486 0-.494-.068-.978-.191-1.473a3.855 3.855 0 0 0-.597-1.305 3.104 3.104 0 0 0-1.023-.923c-.417-.236-.912-.36-1.474-.36-.563 0-1.058.124-1.474.36a3.236 3.236 0 0 0-1.024.923c-.27.382-.461.81-.596 1.305a6.01 6.01 0 0 0-.191 1.473c0 .507.067 1.002.191 1.485.124.484.326.923.596 1.306.27.382.608.697 1.024.933.416.248.911.36 1.474.36Zm6.57-9.844h1.924V20.53h2.542v3.465h2.295v1.9h-2.295v6.166c0 .27.011.495.034.697.022.192.079.36.157.495a.723.723 0 0 0 .372.304c.168.068.382.101.675.101.18 0 .36 0 .54-.011.18-.011.36-.034.54-.079v1.969c-.282.034-.563.056-.822.09-.27.034-.54.045-.821.045-.675 0-1.215-.068-1.62-.191-.405-.124-.731-.315-.956-.563-.236-.247-.383-.551-.473-.922a6.98 6.98 0 0 1-.146-1.271v-6.807h-1.924v-1.924h-.022Z"/><path fill="#00B67A" d="M47.242 19.595H35.587l-3.6-11.092-3.611 11.092-11.655-.01 9.438 6.862-3.61 11.08 9.438-6.85 9.427 6.85-3.6-11.08 9.428-6.852Z"/><path fill="#005128" d="m38.624 28.955-.81-2.509-5.828 4.23 6.638-1.721Z"/></g><path fill="#0B0B0B" d="M91.832 54v-1.58h-4.3v-.727l3.875-5.611h1.4v5.454h.93v.885h-.93V54h-.975Zm-3.124-2.464h3.124v-4.57l-3.124 4.57Zm6.746 2.554a.653.653 0 0 1-.672-.672.652.652 0 0 1 .672-.672.653.653 0 0 1 .672.672.653.653 0 0 1-.672.672Zm4.759 0c-.538 0-1-.101-1.389-.303a2.75 2.75 0 0 1-.94-.84 3.84 3.84 0 0 1-.527-1.21 5.984 5.984 0 0 1-.168-1.433c0-.59.056-1.142.168-1.658a4.47 4.47 0 0 1 .549-1.377c.253-.396.582-.706.985-.93.403-.231.889-.347 1.456-.347.381 0 .736.067 1.064.202a2.37 2.37 0 0 1 1.423 1.523h-1.02a1.35 1.35 0 0 0-.616-.627 1.86 1.86 0 0 0-.862-.213 1.83 1.83 0 0 0-.885.201 1.904 1.904 0 0 0-.627.516 2.927 2.927 0 0 0-.403.739 4.695 4.695 0 0 0-.213.862c-.045.299-.067.59-.067.874a2.45 2.45 0 0 1 .593-.639 2.42 2.42 0 0 1 .75-.358c.277-.082.557-.123.841-.123.522 0 .974.108 1.355.325.388.209.691.504.907.884.217.374.325.807.325 1.3 0 .522-.116.982-.347 1.377a2.462 2.462 0 0 1-.963.93 2.9 2.9 0 0 1-1.389.325Zm-.023-.885c.336 0 .631-.071.885-.213.262-.15.467-.347.616-.594a1.62 1.62 0 0 0 .224-.84c0-.328-.071-.62-.213-.873a1.583 1.583 0 0 0-.593-.605 1.656 1.656 0 0 0-.874-.224c-.306 0-.597.07-.873.213a1.69 1.69 0 0 0-.672.582 1.558 1.558 0 0 0-.247.885c0 .314.075.597.224.851.157.247.366.444.627.594.27.15.568.224.896.224Zm6.648.795v-7.918h2.968c.441 0 .833.044 1.176.134.351.09.65.231.896.426.247.194.434.451.56.772.135.314.202.695.202 1.143 0 .44-.082.817-.246 1.131a2.19 2.19 0 0 1-.65.75c-.269.194-.56.336-.874.426L112.528 54h-1.064l-1.579-2.968h-2.072V54h-.975Zm.975-3.853h1.68c.291 0 .564-.022.817-.067.262-.045.49-.123.684-.235.201-.12.358-.284.47-.493.112-.216.172-.493.179-.829.008-.38-.063-.683-.213-.907a1.209 1.209 0 0 0-.66-.493c-.292-.104-.646-.157-1.064-.157h-1.893v3.181ZM113.012 54l2.946-7.918h1.4L120.292 54h-1.053l-.627-1.702h-3.92L114.065 54h-1.053Zm2.005-2.587h3.27l-1.635-4.48-1.635 4.48ZM122.208 54v-7.034h-2.542v-.884h6.059v.884h-2.542V54h-.975Zm4.316 0v-7.918h.975V54h-.975Zm2.585 0v-7.918h1.243l4.133 6.596v-6.596h.974V54h-1.221l-4.155-6.574V54h-.974Zm11.18.09c-.822 0-1.505-.172-2.05-.516a3.245 3.245 0 0 1-1.21-1.433c-.261-.605-.392-1.296-.392-2.072 0-.583.071-1.12.213-1.613.149-.493.373-.922.672-1.288.299-.373.672-.66 1.12-.862.456-.21.989-.314 1.602-.314.582 0 1.09.09 1.523.269.433.179.788.43 1.064.75a2.7 2.7 0 0 1 .594 1.143h-1.064a1.486 1.486 0 0 0-.404-.672 1.93 1.93 0 0 0-.728-.448 2.937 2.937 0 0 0-.996-.157c-.463 0-.859.082-1.188.246a2.174 2.174 0 0 0-.806.683c-.209.284-.362.62-.459 1.008a4.98 4.98 0 0 0-.146 1.232c0 .583.093 1.113.28 1.59a2.5 2.5 0 0 0 .863 1.143c.388.284.888.426 1.5.426.508 0 .941-.09 1.3-.269a1.98 1.98 0 0 0 .828-.795c.194-.351.292-.77.292-1.255h-2.599v-.884h3.528v.66c0 .687-.134 1.288-.403 1.804a2.877 2.877 0 0 1-1.154 1.198c-.492.284-1.086.426-1.78.426Z"/><defs><clipPath id="a"><path fill="#fff" d="M16.72 8.503h127.44V39.8H16.72z"/></clipPath></defs></svg>