<svg xmlns="http://www.w3.org/2000/svg" width="40" height="40" fill="none"><path fill="#01F091" d="M20 5C12 5 5 11.433 5 20a14.94 14.94 0 0 0 3.283 9.35L5 32.65 7.35 35l3.283-3.283C13.217 33.767 16.467 35 20 35c3.833 0 7.683-1.467 10.6-4.4A14.915 14.915 0 0 0 35 20V5H20Zm11.667 15c0 3.117-1.217 6.05-3.417 8.25A11.599 11.599 0 0 1 20 31.667c-6.433 0-11.667-5.234-11.667-11.667 0-3.167 1.234-6.133 3.5-8.317A11.57 11.57 0 0 1 20 8.333h11.667V20Z"/><path fill="#01F091" d="m14.1 21.05 6.75.667-4.067 5.55a.68.68 0 0 0 .067.866c.25.25.667.267.933.017l8.6-7.717a.853.853 0 0 0-.5-1.483l-6.75-.667 4.067-5.55a.68.68 0 0 0-.067-.866.674.674 0 0 0-.933-.017l-8.6 7.717c-.533.5-.233 1.416.5 1.483Z"/></svg>