<svg xmlns="http://www.w3.org/2000/svg" width="40" height="40" fill="none"><path fill="#01F091" d="M20.65 18.167c-3.782-.984-5-2-5-3.584 0-1.816 1.684-3.083 4.5-3.083 2.968 0 4.068 1.417 4.168 3.5H28c-.117-2.867-1.867-5.5-5.35-6.35V5h-5v3.6c-3.233.7-5.833 2.8-5.833 6.017 0 3.85 3.183 5.766 7.833 6.883 4.167 1 5 2.467 5 4.017 0 1.15-.817 2.983-4.5 2.983-3.433 0-4.783-1.533-4.967-3.5h-3.666c.2 3.65 2.933 5.7 6.133 6.383V35h5v-3.583c3.25-.617 5.833-2.5 5.833-5.917 0-4.733-4.05-6.35-7.833-7.333Z"/></svg>