<svg xmlns="http://www.w3.org/2000/svg" width="40" height="40" fill="none"><path fill="#01F091" d="m38.334 19.983-4.067-4.65.567-6.15-6.017-1.366-3.15-5.317L20 4.933 14.334 2.5l-3.15 5.317-6.017 1.35.567 6.166-4.067 4.65 4.067 4.65-.567 6.167 6.017 1.367 3.15 5.333L20 35.05l5.667 2.433 3.15-5.316 6.017-1.367-.567-6.15 4.067-4.667ZM31.75 22.45l-.933 1.083.133 1.417.3 3.25-4.566 1.033-.734 1.234-1.65 2.8-2.966-1.284L20 31.417l-1.316.566-2.967 1.284-1.65-2.784-.733-1.233-4.567-1.033.3-3.267.133-1.417-.933-1.083L6.117 20l2.15-2.467.933-1.083-.15-1.433-.3-3.234 4.567-1.033.733-1.233 1.65-2.8L18.667 8 20 8.567 21.317 8l2.967-1.283 1.65 2.8.733 1.233 4.567 1.033-.3 3.25-.134 1.417.934 1.083 2.15 2.45-2.134 2.467Z"/><path fill="#01F091" d="m16.817 22.917-3.867-3.884-2.466 2.484 6.333 6.35L29.05 15.6l-2.466-2.483-9.767 9.8Z"/></svg>