<svg xmlns="http://www.w3.org/2000/svg" width="40" height="40" fill="none"><path fill="#01F091" d="M35 20.367C35 11.217 27.9 5 20 5 12.183 5 5 11.083 5 20.467a3.28 3.28 0 0 0-1.667 2.866v3.334C3.333 28.5 4.833 30 6.666 30h1.667V19.833c0-6.45 5.217-11.666 11.667-11.666s11.666 5.216 11.666 11.666v11.834H18.333V35h13.333C33.5 35 35 33.5 35 31.667v-2.034a3.081 3.081 0 0 0 1.666-2.733v-3.833c0-1.167-.683-2.184-1.666-2.7Z"/><path fill="#01F091" d="M15 23.333A1.667 1.667 0 1 0 15 20a1.667 1.667 0 0 0 0 3.333Zm10 0A1.667 1.667 0 1 0 25 20a1.667 1.667 0 0 0 0 3.333Z"/><path fill="#01F091" d="M30 18.383C29.2 13.633 25.066 10 20.083 10c-5.05 0-10.483 4.183-10.05 10.75 4.117-1.683 7.217-5.35 8.1-9.817 2.183 4.384 6.667 7.4 11.867 7.45Z"/></svg>