<svg xmlns="http://www.w3.org/2000/svg" width="40" height="40" fill="none"><path fill="#01F091" d="M25 17.5c0-.917.75-1.667 1.667-1.667s1.667.75 1.667 1.667-.75 1.667-1.667 1.667c-.916 0-1.666-.75-1.666-1.667Zm-11.666-1.667h8.333V12.5h-8.333v3.333Zm23.333-2.5V24.95l-4.7 1.567-2.8 9.316h-9.166V32.5h-3.334v3.333H7.501s-4.167-14.1-4.167-19.166c0-5.067 4.1-9.167 9.167-9.167h8.333a8.325 8.325 0 0 1 6.667-3.333c1.383 0 2.5 1.116 2.5 2.5 0 .35-.067.666-.2.966a8.053 8.053 0 0 0-.534 1.917l3.784 3.783h3.616Zm-3.333 3.334h-1.667l-5.833-5.834c0-1.083.15-2.15.433-3.183a5.026 5.026 0 0 0-3.483 3.183H12.501a5.84 5.84 0 0 0-5.834 5.834c0 3.133 2.034 11.083 3.35 15.833h3.317v-3.333h10V32.5h3.35l2.583-8.583 4.067-1.367v-5.883Z"/></svg>