<svg xmlns="http://www.w3.org/2000/svg" width="108" height="33" fill="none"><path fill="#fff" d="M40.672 7.235h3.244v17.466h-3.243V7.235Zm13.981 3.992c1.68 0 3.028.491 4.042 1.473 1.015.98 1.522 2.436 1.522 4.366V24.7H57.1v-7.236c0-1.164-.275-2.038-.824-2.62-.549-.599-1.33-.898-2.345-.898-1.148 0-2.054.35-2.72 1.048-.665.682-.998 1.672-.998 2.97V24.7h-3.119V11.377h2.97V13.1a4.877 4.877 0 0 1 1.946-1.398c.781-.316 1.663-.474 2.644-.474Zm20.505.15-5.714 13.324h-3.218l-5.714-13.324h3.243l4.142 9.88 4.267-9.88h2.994Zm12.862 6.737c0 .216-.017.524-.05.923H77.515c.183.981.657 1.763 1.422 2.345.782.566 1.747.849 2.895.849 1.464 0 2.67-.483 3.618-1.448l1.671 1.922a5.632 5.632 0 0 1-2.27 1.622c-.915.365-1.946.548-3.094.548-1.464 0-2.753-.29-3.867-.873-1.115-.582-1.98-1.389-2.595-2.42-.6-1.048-.898-2.229-.898-3.543 0-1.298.29-2.462.873-3.493a6.346 6.346 0 0 1 2.47-2.445c1.048-.583 2.229-.874 3.543-.874 1.297 0 2.453.291 3.468.874a5.89 5.89 0 0 1 2.395 2.42c.582 1.031.874 2.229.874 3.593Zm-6.737-4.392c-.998 0-1.847.3-2.545.899-.682.582-1.098 1.364-1.248 2.345h7.56c-.133-.965-.54-1.747-1.222-2.345-.682-.6-1.53-.899-2.545-.899Zm11.454-.399c.898-1.397 2.479-1.846 4.74-1.846v2.495a3.96 3.96 0 0 0-.723-.075c-1.214 0-2.162.582-2.844 1.297-.682.7-1.023 1.714-1.023 3.044v6.463h-3.12V11.377h2.97v1.946ZM108 23.977c-.366.3-.815.524-1.347.674a5.884 5.884 0 0 1-1.647.224c-1.464 0-2.595-.382-3.394-1.147-.798-.766-1.197-1.88-1.197-3.344v-6.412h-2.196v-2.495h2.196V8.433h3.119v3.044h3.568v2.495h-3.568v6.337c0 .65.158 1.148.474 1.497.316.333.773.5 1.372.5.699 0 1.281-.184 1.747-.55l.873 2.221Z"/><path fill="#fff" fill-rule="evenodd" d="M32.516 16.02c0 8.836-7.164 16-16 16-8.837 0-16-7.164-16-16 0-8.837 7.163-16 16-16 8.836 0 16 7.163 16 16Zm-5.029 0c0 6.059-4.912 10.971-10.971 10.971-.42 0-.835-.024-1.243-.07 5.514-.579 9.812-5.243 9.812-10.91 0-5.64-4.255-10.285-9.73-10.902.382-.04.769-.06 1.16-.06 6.06 0 10.972 4.911 10.972 10.97Zm-14.514 7.727c3.616-.638 6.366-3.855 6.366-7.727 0-3.873-2.75-7.09-6.366-7.728a7.843 7.843 0 1 1 0 15.456Z" clip-rule="evenodd"/></svg>