<svg xmlns="http://www.w3.org/2000/svg" width="129" height="36" fill="none"><path fill="#fff" d="M18.758 14.432h9.266L18.758.42H9.492l9.266 14.012Z"/><path fill="#fff" d="M9.267 14.432H.001L9.267.42h9.267L9.267 14.432Zm9.493 14.012V14.432h9.266v14.012H18.76Zm-18.76 0V14.432h9.266v14.012H0Zm51.716-19.05v19.068h-3.824V20.35h-8.168v8.113h-3.825V9.394h3.825v7.84h8.168v-7.84h3.824Zm9.392 19.314c-1.457 0-2.768-.319-3.934-.956a7.173 7.173 0 0 1-2.759-2.76c-.655-1.183-.983-2.549-.983-4.097 0-1.548.337-2.914 1.01-4.098a7.117 7.117 0 0 1 2.814-2.731c1.184-.656 2.504-.984 3.961-.984 1.457 0 2.778.328 3.961.984a6.933 6.933 0 0 1 2.787 2.731c.692 1.184 1.038 2.55 1.038 4.098s-.355 2.914-1.066 4.098a7.258 7.258 0 0 1-2.84 2.759c-1.184.637-2.514.956-3.989.956Zm0-3.333c.692 0 1.339-.164 1.94-.491.619-.346 1.11-.856 1.475-1.53.364-.674.546-1.494.546-2.459 0-1.439-.382-2.54-1.147-3.305-.747-.783-1.667-1.175-2.76-1.175-1.092 0-2.012.392-2.758 1.175-.729.765-1.093 1.866-1.093 3.305s.355 2.55 1.065 3.333c.729.765 1.64 1.147 2.732 1.147ZM89.51 13.11c1.858 0 3.351.573 4.48 1.72 1.148 1.13 1.721 2.714 1.721 4.754v8.878h-3.824v-8.36c0-1.183-.3-2.084-.902-2.704-.6-.637-1.42-.956-2.458-.956-1.038 0-1.867.319-2.486.956-.601.62-.902 1.521-.902 2.705v8.36h-3.824v-8.36c0-1.184-.3-2.085-.902-2.705-.6-.637-1.42-.956-2.458-.956-1.056 0-1.894.319-2.513.956-.601.62-.902 1.521-.902 2.705v8.36h-3.824V13.327h3.824v1.83a5.116 5.116 0 0 1 1.885-1.502 6.014 6.014 0 0 1 2.568-.546c1.184 0 2.24.255 3.169.764a5.178 5.178 0 0 1 2.158 2.131c.492-.874 1.202-1.575 2.13-2.103a6.18 6.18 0 0 1 3.06-.792Zm22.807 7.457c0 .547-.037 1.038-.11 1.476h-11.063c.091 1.092.473 1.948 1.147 2.567.674.62 1.502.93 2.486.93 1.42 0 2.431-.61 3.032-1.831h4.125c-.437 1.457-1.275 2.659-2.513 3.606-1.239.929-2.759 1.393-4.562 1.393-1.457 0-2.768-.319-3.934-.956a7.037 7.037 0 0 1-2.704-2.76c-.638-1.183-.957-2.549-.957-4.097 0-1.566.32-2.941.957-4.125a6.67 6.67 0 0 1 2.677-2.732c1.147-.637 2.467-.956 3.961-.956 1.439 0 2.722.31 3.852.929a6.406 6.406 0 0 1 2.649 2.65c.638 1.129.957 2.431.957 3.906Zm-3.962-1.092c-.018-.984-.373-1.767-1.065-2.35-.692-.6-1.539-.901-2.54-.901-.947 0-1.749.291-2.404.874-.638.565-1.029 1.357-1.175 2.377h7.184Zm20.139-6.147-9.37 22.291h-4.071l3.279-7.54-6.065-14.75h4.289l3.906 10.571 3.961-10.572h4.071Z"/></svg>