<svg xmlns="http://www.w3.org/2000/svg" width="158" height="36" fill="none"><path fill="#fff" d="m42.49 29.526 1.764-.44v-18.81l-1.763-.441v-.441h7.935c2.978 0 5.163.48 6.554 1.44 1.41.94 2.116 2.175 2.116 3.703 0 1.058-.304 1.91-.911 2.557-.607.646-1.381 1.127-2.322 1.44-1 .353-2.077.539-3.233.559v.146c1.43.06 2.675.275 3.733.647 1.077.353 1.969.901 2.674 1.646.725.744 1.088 1.695 1.088 2.85 0 1.744-.715 3.116-2.146 4.115-1.43.98-3.752 1.47-6.965 1.47H42.49v-.441Zm7.936-10.727a3.25 3.25 0 0 0 1.793-.53 3.944 3.944 0 0 0 1.352-1.528 4.639 4.639 0 0 0 .529-2.204c0-.862-.177-1.626-.53-2.292-.332-.667-.783-1.186-1.351-1.558a3.128 3.128 0 0 0-1.793-.558h-1.323v8.67h1.323Zm.588 10.433c1.215 0 2.204-.431 2.968-1.293.764-.862 1.146-2.048 1.146-3.556 0-1.509-.382-2.694-1.146-3.556-.764-.863-1.753-1.294-2.968-1.294h-1.91v9.699h1.91Zm9.689.294 1.764-.44v-18.81l-1.764-.441v-.441h3.821c1.763 0 2.645.881 2.645 2.645v17.046l1.764.44v.442h-8.23v-.441Zm16.307.882c-2.43 0-4.34-.686-5.73-2.058-1.372-1.39-2.058-3.301-2.058-5.73 0-2.43.686-4.33 2.057-5.702 1.391-1.391 3.302-2.087 5.731-2.087 2.43 0 4.33.696 5.702 2.087 1.391 1.371 2.087 3.272 2.087 5.701 0 2.43-.696 4.34-2.087 5.731-1.372 1.372-3.272 2.058-5.702 2.058Zm0-.588c.784 0 1.44-.549 1.97-1.646.548-1.097.822-2.949.822-5.555s-.274-4.457-.823-5.555c-.529-1.097-1.185-1.645-1.969-1.645s-1.45.548-1.998 1.645c-.53 1.098-.794 2.95-.794 5.555 0 2.606.265 4.458.794 5.555.548 1.097 1.215 1.646 1.998 1.646Zm15.587.588c-1.215 0-2.302-.265-3.262-.794-.47-.255-.852-.529-1.146-.823-.314.431-.657.764-1.029 1a4.163 4.163 0 0 1-.588.323h-.734v-4.997h1.175a8.292 8.292 0 0 0 1.117 2.293c1.038 1.509 2.332 2.263 3.88 2.263.822 0 1.44-.196 1.851-.588.431-.411.647-1 .647-1.763 0-.647-.294-1.186-.882-1.617-.568-.45-1.47-1-2.704-1.646-1.058-.529-1.92-.999-2.586-1.41a6.783 6.783 0 0 1-1.675-1.587c-.451-.647-.677-1.401-.677-2.263 0-1.176.5-2.126 1.5-2.851 1.018-.745 2.576-1.117 4.672-1.117a5.35 5.35 0 0 1 2.88.823c.432.255.804.519 1.117.793a4.555 4.555 0 0 1 1.03-.999c.332-.196.528-.304.587-.323h.735v4.996h-1.176a10.53 10.53 0 0 0-1.087-2.263c-.98-1.528-2.146-2.292-3.498-2.292-.529 0-.98.196-1.352.588-.372.391-.558.881-.558 1.469 0 .744.313 1.371.94 1.88.627.49 1.578 1.059 2.851 1.706 1.039.529 1.862.999 2.469 1.41a5.683 5.683 0 0 1 1.587 1.47c.45.588.676 1.273.676 2.057 0 2.841-2.253 4.262-6.76 4.262Zm14.403 0c-1.215 0-2.303-.265-3.263-.794a4.938 4.938 0 0 1-1.146-.823c-.313.431-.656.764-1.029 1a4.164 4.164 0 0 1-.587.323h-.735v-4.997h1.175a8.298 8.298 0 0 0 1.117 2.293c1.039 1.509 2.332 2.263 3.88 2.263.823 0 1.44-.196 1.851-.588.431-.411.647-1 .647-1.763 0-.647-.294-1.186-.882-1.617-.568-.45-1.469-1-2.704-1.646-1.058-.529-1.92-.999-2.586-1.41a6.772 6.772 0 0 1-1.675-1.587c-.451-.647-.676-1.401-.676-2.263 0-1.176.499-2.126 1.499-2.851 1.018-.745 2.576-1.117 4.673-1.117a5.35 5.35 0 0 1 2.88.823c.431.255.803.519 1.117.793a4.54 4.54 0 0 1 1.028-.999c.333-.196.529-.304.588-.323h.735v4.996h-1.176a10.54 10.54 0 0 0-1.087-2.263c-.98-1.528-2.146-2.292-3.498-2.292-.529 0-.979.196-1.351.588-.373.391-.559.881-.559 1.469 0 .744.314 1.371.941 1.88.627.49 1.577 1.059 2.85 1.706 1.039.529 1.862.999 2.469 1.41a5.682 5.682 0 0 1 1.587 1.47c.451.588.676 1.273.676 2.057 0 2.841-2.253 4.262-6.759 4.262Zm15.283 0c-2.429 0-4.339-.686-5.731-2.058-1.371-1.39-2.057-3.301-2.057-5.73 0-2.43.686-4.33 2.057-5.702 1.392-1.391 3.302-2.087 5.731-2.087 2.43 0 4.331.696 5.702 2.087 1.391 1.371 2.087 3.272 2.087 5.701 0 2.43-.696 4.34-2.087 5.731-1.371 1.372-3.272 2.058-5.702 2.058Zm0-.588c.784 0 1.441-.549 1.97-1.646.548-1.097.823-2.949.823-5.555s-.275-4.457-.823-5.555c-.529-1.097-1.186-1.645-1.97-1.645-.783 0-1.449.548-1.998 1.645-.529 1.098-.794 2.95-.794 5.555 0 2.606.265 4.458.794 5.555.549 1.097 1.215 1.646 1.998 1.646Zm8.681-.294 1.763-.44V16.153l-1.763-.441v-.441h2.645c1.156 0 2.067.372 2.733 1.117.255.294.47.656.647 1.087.294-.549.607-.99.94-1.322.882-.882 1.891-1.323 3.027-1.323 1.137 0 2.136.255 2.998.764a5.102 5.102 0 0 1 1.999 2.028c.294-.568.607-1.029.94-1.381.902-.94 1.911-1.411 3.027-1.411 1.039 0 1.97.215 2.792.646.843.431 1.49 1.02 1.94 1.764.47.744.706 1.558.706 2.44v9.404l1.763.44v.442H153.3c-1.763 0-2.645-.882-2.645-2.645V19.68c0-1.273-.196-2.224-.588-2.85-.392-.647-.832-.97-1.322-.97-.568 0-1.146.391-1.734 1.175a8.347 8.347 0 0 0-.617 1.176v10.874l1.763.44v.442h-8.229v-.441l1.763-.44V19.68c0-1.273-.196-2.224-.588-2.85-.391-.647-.832-.97-1.322-.97-.568 0-1.146.391-1.734 1.175a8.347 8.347 0 0 0-.617 1.176v10.874l1.763.44v.442h-8.229v-.441Z"/><path fill="#fff" fill-rule="evenodd" d="M18.57 35.579a2.16 2.16 0 0 1-.586.034C11.827 35.146 6 31.746 2.68 25.995c-3.32-5.75-3.35-12.497-.677-18.062a2.171 2.171 0 0 1 2.123-1.226c2.294.174 4.543.755 6.633 1.714A20.542 20.542 0 0 1 17.513.797a2.187 2.187 0 0 1 2.455 0 20.543 20.543 0 0 1 6.69 7.499 19.45 19.45 0 0 1 6.354-1.59 2.171 2.171 0 0 1 2.124 1.227c2.674 5.565 2.642 12.312-.678 18.062-3.32 5.75-9.147 9.151-15.303 9.618-.2.015-.396.003-.586-.034Zm4.51-3.486a16.59 16.59 0 0 0 9.054-7.44c2.795-4.841 2.886-10.503.732-15.24a16.76 16.76 0 0 0-5.127 1.339 20.408 20.408 0 0 1 1.226 6.987 20.382 20.382 0 0 1-5.885 14.354Zm1.202-22.55a17.847 17.847 0 0 0-5.541-6.333 17.846 17.846 0 0 0-5.625 6.497 19.22 19.22 0 0 1 5.453 5.26 19.22 19.22 0 0 1 5.713-5.423ZM20.09 17.57a16.582 16.582 0 0 1 5.259-5.524 17.76 17.76 0 0 1 .932 5.694c0 4.598-1.745 8.788-4.615 11.945A19.26 19.26 0 0 0 20.09 17.57Zm-3.041 0a16.587 16.587 0 0 0-4.979-5.337 17.754 17.754 0 0 0-.87 5.507 17.69 17.69 0 0 0 4.183 11.451c-.646-3.843-.14-7.9 1.666-11.62Zm1.52 13.426a16.634 16.634 0 0 0 0-10.012 16.633 16.633 0 0 0 0 10.012ZM5.004 24.653a16.595 16.595 0 0 0 9.56 7.603 20.385 20.385 0 0 1-6.047-14.517c0-2.404.415-4.711 1.177-6.854a16.76 16.76 0 0 0-5.421-1.472c-2.155 4.737-2.064 10.399.731 15.24Z" clip-rule="evenodd"/></svg>