<svg xmlns="http://www.w3.org/2000/svg" width="127" height="33" fill="none"><path fill="#fff" d="M48.67 8.882V31.76h-5.572v-9.42H34.43v9.418h-5.573V8.882h5.573v8.962h8.668V8.882h5.573Zm5.523 2.803c-.978 0-1.782-.283-2.412-.848a2.873 2.873 0 0 1-.912-2.15c0-.87.304-1.586.912-2.151.63-.587 1.434-.88 2.412-.88.955 0 1.738.293 2.346.88.63.565.945 1.282.945 2.15 0 .848-.315 1.565-.945 2.151-.608.565-1.39.848-2.346.848Zm2.77 1.89v18.184H51.39V13.575h5.572Zm12.869 13.459v4.725h-2.835c-2.02 0-3.596-.489-4.725-1.467-1.13-.999-1.695-2.618-1.695-4.855v-7.235h-2.216v-4.627h2.216V9.143h5.573v4.432h3.65v4.627h-3.65v7.3c0 .543.13.934.39 1.173.261.24.696.359 1.304.359h1.988Zm18.942-4.661c0 .522-.033 1.065-.098 1.63H76.065c.087 1.13.445 1.999 1.075 2.607.652.587 1.445.88 2.379.88 1.39 0 2.357-.587 2.9-1.76h5.931a8.033 8.033 0 0 1-1.662 3.226c-.782.956-1.77 1.706-2.965 2.249-1.195.543-2.531.815-4.008.815-1.782 0-3.368-.38-4.758-1.141-1.39-.76-2.477-1.847-3.26-3.259-.781-1.412-1.172-3.063-1.172-4.953 0-1.89.38-3.542 1.14-4.954a8.108 8.108 0 0 1 3.26-3.258c1.39-.76 2.986-1.141 4.79-1.141 1.76 0 3.323.37 4.692 1.108a7.85 7.85 0 0 1 3.194 3.161c.782 1.369 1.173 2.966 1.173 4.79Zm-5.703-1.466c0-.956-.326-1.716-.978-2.281-.651-.565-1.466-.847-2.444-.847-.934 0-1.727.271-2.379.814-.63.543-1.02 1.315-1.173 2.314h6.974Zm6.231 1.76c0-1.89.38-3.542 1.14-4.954.783-1.412 1.858-2.498 3.227-3.258 1.39-.76 2.976-1.141 4.758-1.141 2.281 0 4.182.598 5.703 1.792 1.542 1.195 2.552 2.879 3.03 5.051h-5.931c-.499-1.39-1.466-2.085-2.9-2.085-1.021 0-1.836.402-2.444 1.206-.608.782-.913 1.911-.913 3.389 0 1.477.305 2.618.913 3.421.608.783 1.423 1.174 2.444 1.174 1.434 0 2.401-.695 2.9-2.086h5.931c-.478 2.13-1.488 3.802-3.03 5.019-1.543 1.216-3.444 1.825-5.703 1.825-1.782 0-3.368-.38-4.758-1.141-1.369-.76-2.444-1.847-3.226-3.259-.76-1.412-1.14-3.063-1.14-4.953Zm30.713-9.287c2.086 0 3.759.694 5.019 2.085 1.26 1.369 1.89 3.259 1.89 5.67V31.76h-5.54v-9.874c0-1.217-.315-2.162-.945-2.836-.63-.673-1.477-1.01-2.542-1.01-1.064 0-1.912.337-2.542 1.01-.63.674-.945 1.619-.945 2.836v9.874h-5.572V7.644h5.572v8.375c.565-.804 1.336-1.445 2.314-1.923s2.075-.717 3.291-.717ZM.003.02h6.595v10.168a10.28 10.28 0 0 1 3.71-.688c5.691 0 10.305 4.614 10.305 10.305V31.76h-6.595V19.805a3.71 3.71 0 0 0-7.42-.003V31.76H.003V.019Zm14.015 6.595V.02h6.595v6.595h-6.595Z"/></svg>