<svg xmlns="http://www.w3.org/2000/svg" width="115" height="36" fill="none"><path fill="#000" d="M22.196 27.566a7.413 7.413 0 0 1-2.127 5.854 7.413 7.413 0 0 1-5.835 2.179 7.414 7.414 0 0 1 2.127-5.854 7.414 7.414 0 0 1 5.835-2.18Zm-3.792-2.908a10.802 10.802 0 0 1-8.405 3.424 10.802 10.802 0 0 1-8.058-4.175 10.802 10.802 0 0 1 8.405-3.424c3.296.15 6.18 1.76 8.058 4.175ZM.713 17.466A18.54 18.54 0 0 1 8.388 3.912 18.54 18.54 0 0 1 23.682.962a18.54 18.54 0 0 1-7.675 13.554 18.54 18.54 0 0 1-15.294 2.95Zm84.773-6.417v3.186h1.912v16.66h3.399v-16.66h4.461V11.05h-4.461V7.788c0-.935.085-1.686.255-2.252.17-.567.396-.963.68-1.19a1.69 1.69 0 0 1 1.104-.382c.34 0 .694.07 1.063.212.396.113.736.41 1.02.892l1.869-2.804c-.198-.283-.482-.552-.85-.807a4.58 4.58 0 0 0-1.232-.638c-.482-.17-1.034-.254-1.657-.254-1.19 0-2.21.254-3.06.764-.82.482-1.458 1.218-1.911 2.21-.454.991-.68 2.266-.68 3.824v3.686h-1.912ZM32.108 4.552v26.343h15.296v-3.4H35.719V4.553h-3.61Z"/><path fill="#000" fill-rule="evenodd" d="M56.462 31.32c2.096 0 3.91-.41 5.439-1.232 1.558-.85 2.846-2.097 3.866-3.74l-2.761-1.741c-.709 1.19-1.572 2.082-2.592 2.676-1.02.567-2.196.85-3.527.85s-2.464-.283-3.399-.85c-.935-.566-1.643-1.388-2.124-2.464-.366-.818-.593-1.767-.681-2.847h15.382v-.382a5.23 5.23 0 0 0 .042-.637c0-2.068-.368-3.853-1.105-5.354-.736-1.501-1.798-2.649-3.186-3.442-1.36-.821-3.003-1.232-4.929-1.232-1.926 0-3.626.425-5.099 1.275-1.444.85-2.577 2.04-3.399 3.569-.793 1.53-1.19 3.314-1.19 5.353 0 2.012.383 3.782 1.148 5.311.793 1.53 1.884 2.734 3.272 3.612 1.416.85 3.03 1.275 4.843 1.275Zm-5.056-14.192a7.651 7.651 0 0 0-.598 1.955h11.584c-.066-.93-.3-1.752-.704-2.464a4.991 4.991 0 0 0-1.912-1.997c-.821-.482-1.784-.723-2.889-.723-1.303 0-2.422.284-3.356.85-.907.538-1.615 1.332-2.125 2.38Zm28.537 3.051c-.534-.35-1.214-.659-2.04-.926-.934-.34-2.11-.51-3.526-.51-2.407 0-4.29.58-5.65 1.742-1.332 1.133-1.998 2.649-1.998 4.547 0 1.33.312 2.464.935 3.398a6.288 6.288 0 0 0 2.465 2.168 7.944 7.944 0 0 0 3.356.722 9.284 9.284 0 0 0 3.23-.595c1.104-.397 2.025-1.006 2.761-1.827.176-.19.332-.39.467-.601v2.598h3.4V16.874c0-1.275-.326-2.351-.978-3.23-.623-.878-1.515-1.543-2.676-1.996-1.133-.482-2.465-.723-3.994-.723-1.813 0-3.371.27-4.674.807-1.275.539-2.28 1.077-3.017 1.615l1.657 2.507c.312-.227.737-.496 1.275-.807.538-.312 1.19-.581 1.954-.808.793-.226 1.672-.34 2.635-.34a8.27 8.27 0 0 1 1.7.17 4.15 4.15 0 0 1 1.401.553c.425.255.75.609.977 1.062.227.425.34.977.34 1.657v2.838Zm-9.262 2.856c-.34.51-.51 1.118-.51 1.826 0 .737.17 1.374.51 1.912.368.539.864.95 1.487 1.233.651.255 1.388.382 2.21.382 1.047 0 1.982-.212 2.804-.637a4.888 4.888 0 0 0 1.997-1.785c.51-.793.764-1.7.764-2.72v-.734a9.375 9.375 0 0 0-1.657-.625 11.726 11.726 0 0 0-3.356-.467c-1.105 0-2.011.141-2.72.425-.68.283-1.19.68-1.53 1.19Zm39.326 7.053c-1.529.821-3.342 1.232-5.438 1.232-1.813 0-3.428-.425-4.844-1.275-1.388-.878-2.478-2.082-3.271-3.612-.765-1.53-1.148-3.3-1.148-5.31 0-2.04.397-3.825 1.19-5.354.821-1.53 1.955-2.72 3.4-3.57 1.472-.849 3.172-1.274 5.098-1.274 1.926 0 3.569.41 4.928 1.232 1.388.793 2.451 1.94 3.187 3.442.737 1.501 1.105 3.286 1.105 5.354 0 .198-.014.41-.043.637v.382H98.789c.088 1.08.315 2.029.681 2.847.482 1.076 1.19 1.898 2.125 2.464.934.567 2.067.85 3.399.85 1.331 0 2.507-.283 3.526-.85 1.02-.595 1.884-1.487 2.592-2.677l2.762 1.743c-1.02 1.642-2.309 2.889-3.867 3.739ZM98.914 19.083a7.64 7.64 0 0 1 .599-1.954c.509-1.049 1.218-1.842 2.124-2.38.935-.566 2.054-.85 3.357-.85 1.104 0 2.068.241 2.889.723a4.993 4.993 0 0 1 1.912 1.997c.403.712.638 1.533.703 2.464H98.914Z" clip-rule="evenodd"/></svg>