<svg xmlns="http://www.w3.org/2000/svg" width="105" height="36" fill="none"><path fill="#000" d="M14.94.825a3.025 3.025 0 0 1 3.025 0l12.392 7.154-8.569 5.017a7.302 7.302 0 0 0-5.19-2.155c-2.108 0-4.01.89-5.346 2.317L2.478 8.02 14.94.825ZM9.582 16.056.806 10.917v14.365l8.743-5.12a7.343 7.343 0 0 1 .033-4.106Zm1.592 7.031-8.559 5.011 12.326 7.116c.935.54 2.088.54 3.024 0L30.22 28.14l-8.35-4.89a7.303 7.303 0 0 1-5.271 2.24 7.306 7.306 0 0 1-5.425-2.404Zm12.409-2.708 8.517 4.986V10.834l-8.553 5.008a7.36 7.36 0 0 1 .037 4.537Z"/><path fill="#000" fill-rule="evenodd" d="M42.238 26.409c1.227.749 2.702 1.123 4.424 1.123 1.721 0 3.196-.374 4.424-1.123 1.235-.758 2.18-1.81 2.833-3.157.662-1.347.993-2.91.993-4.687 0-1.777-.331-3.34-.993-4.687-.653-1.347-1.598-2.395-2.833-3.144-1.228-.757-2.703-1.136-4.424-1.136-1.722 0-3.197.379-4.424 1.136-1.228.75-2.172 1.797-2.834 3.144-.654 1.348-.98 2.91-.98 4.687 0 1.778.327 3.34.98 4.687.662 1.347 1.606 2.4 2.834 3.157Zm7.305-2.356c-.765.518-1.725.773-2.881.765-1.156-.016-2.12-.283-2.894-.8-.765-.519-1.339-1.24-1.721-2.165-.383-.932-.574-2.028-.574-3.288 0-1.26.19-2.36.574-3.3.39-.94.968-1.67 1.733-2.188.765-.518 1.726-.773 2.882-.765 1.156.016 2.116.283 2.881.801.773.518 1.351 1.244 1.734 2.176.39.925.586 2.017.586 3.276 0 1.26-.196 2.36-.586 3.3-.383.94-.96 1.67-1.734 2.188Z" clip-rule="evenodd"/><path fill="#000" d="M56.335 26.569c0 .334.27.605.605.605h1.683a.605.605 0 0 0 .605-.605v-5.96c0-.493.06-.952.18-1.374a3.5 3.5 0 0 1 .55-1.148 3.01 3.01 0 0 1 .98-.825c.399-.24.845-.379 1.34-.419a4.65 4.65 0 0 1 .531-.013c.403.015.795-.282.795-.685v-1.372c0-.295-.213-.552-.509-.568a5.045 5.045 0 0 0-.674.008c-.407.024-.805.1-1.196.227a3.99 3.99 0 0 0-1.052.503 3.526 3.526 0 0 0-.968.884 4.432 4.432 0 0 0-.323.496v-1.457a.605.605 0 0 0-.605-.605H56.94a.605.605 0 0 0-.605.605v11.703Z"/><path fill="#000" fill-rule="evenodd" d="M71.135 27.532c-1.26 0-2.316-.298-3.169-.896a5.347 5.347 0 0 1-.514-.41v.343c0 .334-.27.605-.605.605H65.51a.605.605 0 0 1-.604-.605V10.562c0-.335.27-.605.604-.605h1.696c.334 0 .605.27.605.605v4.325c.04-.03.08-.06.12-.088.837-.598 1.869-.897 3.096-.897 1.22 0 2.276.3 3.169.897.9.59 1.598 1.399 2.092 2.427.494 1.02.741 2.184.741 3.491 0 1.292-.243 2.452-.729 3.48s-1.172 1.841-2.056 2.439c-.885.598-1.921.896-3.11.896Zm-3.36-9.026c-.215.63-.323 1.366-.323 2.211 0 .837.108 1.575.323 2.212.223.638.57 1.136 1.04 1.495.479.35 1.104.526 1.877.526.75 0 1.368-.187 1.854-.562.486-.375.845-.88 1.076-1.518.239-.646.359-1.364.359-2.153 0-.78-.12-1.49-.36-2.128-.238-.645-.609-1.156-1.111-1.53-.502-.383-1.14-.574-1.913-.574-.733 0-1.331.18-1.794.538-.462.35-.805.845-1.028 1.483Z" clip-rule="evenodd"/><path fill="#000" d="M78.947 26.569c0 .334.271.605.605.605h1.672a.605.605 0 0 0 .605-.605V14.866a.605.605 0 0 0-.605-.605h-1.672a.605.605 0 0 0-.605.605v11.703Zm13.075.103a.586.586 0 0 1-.495.584c-.682.1-1.354.14-2.016.121-.813-.016-1.542-.163-2.188-.442a3.032 3.032 0 0 1-1.47-1.351 3.85 3.85 0 0 1-.466-1.71 72.931 72.931 0 0 1-.024-1.973v-5.38h-1.739a.605.605 0 0 1-.605-.605v-1.05c0-.334.271-.605.605-.605h1.739v-2.982c0-.334.27-.605.605-.605h1.66c.333 0 .604.27.604.605v2.982h3.185c.334 0 .605.27.605.605v1.05c0 .334-.27.605-.605.605h-3.185v5.213c0 .518.004.972.012 1.363.016.39.1.71.251.956.287.479.745.745 1.375.801.442.04.927.035 1.456-.012a.632.632 0 0 1 .696.618v1.212Zm3.367-.024c.94.59 2.076.884 3.407.884 1.443 0 2.662-.35 3.659-1.052.835-.594 1.46-1.402 1.875-2.422.133-.326-.075-.68-.419-.757l-1.774-.396c-.302-.068-.601.107-.737.384-.207.421-.473.76-.798 1.015-.439.351-1.04.526-1.806.526-1.084 0-1.9-.378-2.45-1.135-.55-.758-.826-1.75-.826-2.978 0-.789.116-1.494.347-2.116.231-.622.59-1.108 1.076-1.459.486-.358 1.104-.538 1.853-.538.662 0 1.252.196 1.77.586.376.278.674.638.895 1.08.145.289.462.468.774.384l1.743-.473c.317-.085.511-.41.402-.72a4.974 4.974 0 0 0-1.83-2.447c-1.012-.741-2.251-1.112-3.718-1.112-1.307 0-2.435.295-3.384.885a5.864 5.864 0 0 0-2.2 2.415c-.51 1.02-.769 2.192-.777 3.515.008 1.3.26 2.463.754 3.492a5.89 5.89 0 0 0 2.164 2.439Zm-16.51-15.867.811-.811a.907.907 0 0 1 1.284 0l.811.811a.907.907 0 0 1 0 1.284l-.811.811a.907.907 0 0 1-1.284 0l-.811-.811a.907.907 0 0 1 0-1.284Z"/></svg>