<svg xmlns="http://www.w3.org/2000/svg" width="250" height="250" fill="none"><rect width="250" height="250" fill="#01F091" rx="39.063"/><path fill="#0B0B0B" d="M129 105c10.725 0 19.5 8.775 19.5 19.5S139.725 144 129 144s-19.5-8.775-19.5-19.5S118.275 105 129 105Zm0-13c-17.94 0-32.5 14.56-32.5 32.5 0 17.94 14.56 32.5 32.5 32.5 17.94 0 32.5-14.56 32.5-32.5 0-17.94-14.56-32.5-32.5-32.5Zm-65 39h13c3.575 0 6.5-2.925 6.5-6.5S80.575 118 77 118H64c-3.575 0-6.5 2.925-6.5 6.5s2.925 6.5 6.5 6.5Zm117 0h13c3.575 0 6.5-2.925 6.5-6.5s-2.925-6.5-6.5-6.5h-13c-3.575 0-6.5 2.925-6.5 6.5s2.925 6.5 6.5 6.5Zm-58.5-71.5v13c0 3.575 2.925 6.5 6.5 6.5s6.5-2.925 6.5-6.5v-13c0-3.575-2.925-6.5-6.5-6.5s-6.5 2.925-6.5 6.5Zm0 117v13c0 3.575 2.925 6.5 6.5 6.5s6.5-2.925 6.5-6.5v-13c0-3.575-2.925-6.5-6.5-6.5s-6.5 2.925-6.5 6.5ZM89.935 76.27c-2.535-2.535-6.695-2.535-9.165 0-2.535 2.535-2.535 6.695 0 9.165l6.89 6.89c2.535 2.535 6.695 2.535 9.165 0 2.47-2.535 2.535-6.695 0-9.165l-6.89-6.89Zm80.405 80.405c-2.535-2.535-6.695-2.535-9.165 0-2.535 2.535-2.535 6.695 0 9.165l6.89 6.89c2.535 2.535 6.695 2.535 9.165 0 2.535-2.535 2.535-6.695 0-9.165l-6.89-6.89Zm6.89-71.24c2.535-2.535 2.535-6.695 0-9.165-2.535-2.535-6.695-2.535-9.165 0l-6.89 6.89c-2.535 2.535-2.535 6.695 0 9.165 2.535 2.47 6.695 2.535 9.165 0l6.89-6.89ZM96.825 165.84c2.535-2.535 2.535-6.695 0-9.165-2.535-2.535-6.695-2.535-9.165 0l-6.89 6.89c-2.535 2.535-2.535 6.695 0 9.165 2.535 2.47 6.695 2.535 9.165 0l6.89-6.89Z"/></svg>