<svg xmlns="http://www.w3.org/2000/svg" width="139" height="31" fill="none"><path fill="#01F091" d="M12 12.5c1.65 0 3 1.35 3 3s-1.35 3-3 3-3-1.35-3-3 1.35-3 3-3Zm0-2c-2.76 0-5 2.24-5 5s2.24 5 5 5 5-2.24 5-5-2.24-5-5-5Zm-10 6h2c.55 0 1-.45 1-1s-.45-1-1-1H2c-.55 0-1 .45-1 1s.45 1 1 1Zm18 0h2c.55 0 1-.45 1-1s-.45-1-1-1h-2c-.55 0-1 .45-1 1s.45 1 1 1Zm-9-11v2c0 .55.45 1 1 1s1-.45 1-1v-2c0-.55-.45-1-1-1s-1 .45-1 1Zm0 18v2c0 .55.45 1 1 1s1-.45 1-1v-2c0-.55-.45-1-1-1s-1 .45-1 1ZM5.99 8.08a.996.996 0 0 0-1.41 0 .996.996 0 0 0 0 1.41l1.06 1.06c.39.39 1.03.39 1.41 0 .38-.39.39-1.03 0-1.41L5.99 8.08Zm12.37 12.37a.996.996 0 0 0-1.41 0 .996.996 0 0 0 0 1.41l1.06 1.06c.39.39 1.03.39 1.41 0a.996.996 0 0 0 0-1.41l-1.06-1.06Zm1.06-10.96a.996.996 0 0 0 0-1.41.996.996 0 0 0-1.41 0l-1.06 1.06a.996.996 0 0 0 0 1.41c.39.38 1.03.39 1.41 0l1.06-1.06ZM7.05 21.86a.996.996 0 0 0 0-1.41.996.996 0 0 0-1.41 0l-1.06 1.06a.996.996 0 0 0 0 1.41c.39.38 1.03.39 1.41 0l1.06-1.06Z"/><path fill="#fff" d="M40.866 25.234c-2.357 0-4.238-.537-5.642-1.612-1.387-1.092-2.201-2.626-2.444-4.602h3.25c.156 1.144.667 2.037 1.534 2.678.867.624 2.002.936 3.406.936 1.161 0 2.045-.208 2.652-.624.624-.433.936-1.031.936-1.794 0-.676-.19-1.222-.572-1.638-.381-.416-1.023-.754-1.924-1.014l-3.38-1.014c-1.716-.52-2.981-1.205-3.796-2.054-.797-.85-1.196-1.915-1.196-3.198 0-1.075.277-2.01.832-2.808.555-.797 1.335-1.413 2.34-1.846 1.023-.433 2.21-.65 3.562-.65 2.08 0 3.735.511 4.966 1.534 1.248 1.005 1.959 2.375 2.132 4.108h-3.25c-.19-1.04-.624-1.803-1.3-2.288-.676-.503-1.586-.754-2.73-.754-1.005 0-1.803.2-2.392.598-.59.399-.884.945-.884 1.638 0 .572.173 1.057.52 1.456.364.399 1.031.745 2.002 1.04l3.432 1.04c1.716.503 2.964 1.187 3.744 2.054.78.867 1.17 1.967 1.17 3.302 0 1.768-.615 3.129-1.846 4.082-1.213.953-2.92 1.43-5.122 1.43Zm14.632.026c-1.404 0-2.643-.295-3.718-.884a6.318 6.318 0 0 1-2.47-2.444c-.59-1.057-.884-2.262-.884-3.614 0-1.352.295-2.54.884-3.562a6.19 6.19 0 0 1 2.47-2.392c1.075-.59 2.314-.884 3.718-.884 1.421 0 2.66.295 3.718.884a6.19 6.19 0 0 1 2.47 2.392c.59 1.023.884 2.21.884 3.562 0 1.352-.303 2.557-.91 3.614a6.318 6.318 0 0 1-2.47 2.444c-1.057.59-2.288.884-3.692.884Zm0-2.626c.693 0 1.317-.173 1.872-.52a3.688 3.688 0 0 0 1.3-1.508c.312-.659.468-1.43.468-2.314 0-1.3-.347-2.323-1.04-3.068-.676-.745-1.543-1.118-2.6-1.118-1.057 0-1.933.373-2.626 1.118-.693.745-1.04 1.768-1.04 3.068 0 .884.156 1.655.468 2.314.33.641.763 1.144 1.3 1.508.555.347 1.187.52 1.898.52ZM64.2 25V6.28h3.276V25H64.2Zm9.665 0-5.303-13.26h3.535l4.239 12.194h-1.742l4.238-12.194h3.431L76.933 25h-3.068Zm17.101 0a9.677 9.677 0 0 1-.208-1.144 18.54 18.54 0 0 1-.052-1.508h-.104v-6.292c0-.693-.2-1.213-.598-1.56-.381-.364-.97-.546-1.768-.546-.78 0-1.404.147-1.872.442-.45.277-.728.685-.832 1.222h-3.146c.139-1.23.728-2.227 1.768-2.99 1.04-.763 2.436-1.144 4.186-1.144 1.82 0 3.198.416 4.134 1.248.936.815 1.404 2.02 1.404 3.614v6.006c0 .416.026.84.078 1.274.07.433.165.893.286 1.378h-3.276Zm-4.602.26c-1.335 0-2.4-.33-3.198-.988-.78-.676-1.17-1.577-1.17-2.704 0-1.213.442-2.175 1.326-2.886.884-.71 2.132-1.187 3.744-1.43l4.134-.624v2.08l-3.588.546c-.78.121-1.37.338-1.768.65-.381.312-.572.745-.572 1.3 0 .503.182.893.546 1.17.364.26.867.39 1.508.39.936 0 1.716-.234 2.34-.702.624-.468.936-1.04.936-1.716l.364 2.002c-.346.953-.918 1.681-1.716 2.184-.78.485-1.742.728-2.886.728ZM96.416 25V11.74h3.198v3.12h.078V25h-3.276Zm9.308 0v-8.372c0-.815-.208-1.43-.624-1.846-.416-.416-1.022-.624-1.82-.624-.693 0-1.317.156-1.872.468a3.403 3.403 0 0 0-1.274 1.3c-.294.555-.442 1.196-.442 1.924l-.338-3.172a5.477 5.477 0 0 1 1.976-2.314c.867-.59 1.907-.884 3.12-.884 1.439 0 2.557.407 3.354 1.222.815.815 1.222 1.898 1.222 3.25V25h-3.302Zm11.578.26c-1.335 0-2.513-.295-3.536-.884a6.479 6.479 0 0 1-2.392-2.444c-.572-1.057-.858-2.253-.858-3.588s.286-2.513.858-3.536a6.479 6.479 0 0 1 2.392-2.444c1.023-.59 2.201-.884 3.536-.884 1.092 0 2.08.208 2.964.624a5.61 5.61 0 0 1 2.184 1.716c.572.728.936 1.577 1.092 2.548h-3.146c-.191-.71-.555-1.265-1.092-1.664s-1.187-.598-1.95-.598c-.711 0-1.326.173-1.846.52-.503.347-.893.84-1.17 1.482-.277.641-.416 1.387-.416 2.236 0 .867.139 1.62.416 2.262.277.641.676 1.144 1.196 1.508.52.347 1.127.52 1.82.52.763 0 1.413-.2 1.95-.598.537-.399.901-.953 1.092-1.664h3.146a5.482 5.482 0 0 1-1.118 2.574 5.95 5.95 0 0 1-2.184 1.716c-.867.399-1.846.598-2.938.598Zm13.698 0c-1.404 0-2.635-.295-3.692-.884a6.365 6.365 0 0 1-2.444-2.444c-.572-1.04-.858-2.236-.858-3.588 0-1.352.286-2.54.858-3.562a6.184 6.184 0 0 1 2.444-2.418c1.04-.59 2.253-.884 3.64-.884 1.317 0 2.461.277 3.432.832.97.537 1.724 1.3 2.262 2.288.537.988.806 2.14.806 3.458 0 .243-.009.468-.026.676a8.306 8.306 0 0 1-.078.624h-11.31V17.07h8.788l-.676.624c0-1.248-.286-2.184-.858-2.808-.572-.624-1.37-.936-2.392-.936-1.11 0-1.994.381-2.652 1.144-.642.763-.962 1.863-.962 3.302 0 1.421.32 2.513.962 3.276.658.745 1.586 1.118 2.782 1.118.693 0 1.3-.13 1.82-.39s.901-.659 1.144-1.196h3.094c-.434 1.248-1.17 2.236-2.21 2.964-1.023.728-2.314 1.092-3.874 1.092Z"/></svg>